<svg version="1.1" id="Layer_1" xmlns="http://www.w3.org/2000/svg" xmlns:xlink="http://www.w3.org/1999/xlink" x="0" y="0" viewBox="0 0 614.2 143.1" xml:space="preserve"><style>.st4{opacity:.1}.st7{fill:#fff}</style><g id="Layer_2_00000052784576965984388860000017441764153098466226_"><g id="Layer_4"><path d="m242.9 32.2-17.2 64h-10.4l-11.8-38.9-11.8 38.9h-10.4l-17.1-64h13.1l9.9 40.4 11.7-40.4h9.4L220 72.6l10-40.4h12.9zm40.3 40.5c.1 3.6-.3 7.2-1.1 10.7-.7 2.8-2.2 5.5-4.2 7.6-3.7 3.8-8.5 5.8-14.6 5.8s-10.9-1.9-14.5-5.8c-2-2.1-3.5-4.7-4.2-7.6-.8-3.5-1.2-7.1-1.1-10.7 0-8.4 1.8-14.5 5.4-18.3 3.6-3.8 8.4-5.7 14.4-5.7 6.1 0 10.9 1.9 14.5 5.7s5.4 9.9 5.4 18.3zm-11.8 0c0-5.8-.9-9.5-2.7-11.3a7.2 7.2 0 0 0-5.4-2.1 7 7 0 0 0-5.3 2.1c-1.8 1.8-2.7 5.6-2.7 11.3s.9 9.6 2.7 11.4a7 7 0 0 0 5.3 2.1c2 .1 4-.7 5.4-2.1 1.8-1.8 2.7-5.6 2.7-11.4zm52.7-19.5-8.8 8.9a8.6 8.6 0 0 0-6.2-2.8 7 7 0 0 0-5.1 2.1 8.6 8.6 0 0 0-2.4 6.6v28.2h-11.7V49.3h11.4v4.5c2.8-3.3 6.8-5 11.8-5a15 15 0 0 1 11 4.4zm22 43h-6.7c-4.5 0-8-1.4-10.5-4.2a13.3 13.3 0 0 1-3.2-9.2V32.2h11.8v49.9c0 2.8 1.4 4.2 4.1 4.2h4.5v9.9zm42.3 0H377v-4.4a14.6 14.6 0 0 1-11.6 4.9c-4.9 0-8.7-1.4-11.5-4.2a15.8 15.8 0 0 1-4.1-9c-.5-3.6-.7-7.2-.6-10.8-.1-3.6.1-7.2.6-10.7.7-3.9 2-6.9 4.1-9 2.8-2.8 6.6-4.2 11.4-4.2 4.8 0 8.6 1.6 11.4 4.7V32.2h11.8l-.1 64zm-11.8-23.5c0-4.4-.5-7.6-1.3-9.5-1.2-2.6-3.4-3.9-6.6-3.9-3.4 0-5.7 1.5-6.9 4.5-.7 1.8-1 4.8-1 8.9s.3 7.1 1 8.9c1 2.9 3.8 4.8 6.9 4.6 3.2 0 5.4-1.3 6.6-3.9.9-1.9 1.3-5.1 1.3-9.6zm66.5-3c0 9-2 15.5-5.9 19.7a23.7 23.7 0 0 1-17.9 7.4c-6.5.1-12.7-2.4-17.3-7-3-3-4.9-6.9-5.6-11.1-.5-2.7-.7-7.5-.7-14.5s.2-11.8.7-14.5c.7-4.2 2.6-8 5.6-11.1a23.7 23.7 0 0 1 17.3-7c3.8-.1 7.5.5 11 1.9 3.2 1.6 6.2 3.7 8.6 6.3l-8.5 8.5c-1.5-1.6-3.2-3-5-4.1a13 13 0 0 0-6.1-1.3c-3-.1-6 1.1-8 3.4-1.6 1.8-2.5 4.7-2.9 8.6a139 139 0 0 0 0 18.7c.4 4 1.3 6.9 2.9 8.7 2 2.2 5 3.5 8 3.3a11 11 0 0 0 8.5-3.6c1.9-2 2.8-4.9 2.8-8.7V71h-11.4V60.5H443v9.2zm45.2 26.5h-11.4v-4.3c-3 3.2-7.3 5-11.7 4.8-4.6 0-8.3-1.4-11.1-4.1a18 18 0 0 1-4.8-13.3v-30h11.8v28.4c0 2.9.8 5.2 2.5 6.7 1.4 1.3 3.3 2 5.2 1.9 1.9.1 3.8-.6 5.2-1.9 1.7-1.5 2.5-3.7 2.5-6.7V49.3h11.8v46.9zm44.1 0H521v-4a16 16 0 0 1-11.5 4.5c-5.3 0-9.2-1.3-11.9-4.1a14.4 14.4 0 0 1-4-10.6 13 13 0 0 1 4.1-9.8c2.7-2.6 6.7-3.8 11.9-3.8h11V66c0-4.9-2.9-7.4-8.7-7.4-3.4-.2-6.8 1.3-9 3.9l-7.4-7.3c2-2.3 4.5-4 7.3-5.1 3.1-1 6.4-1.5 9.6-1.3 13.3 0 20 5.5 20 16.5v30.9zm-11.8-17.3v-2.5h-9.2c-4.4 0-6.5 1.8-6.5 5.3s2.2 5.4 6.7 5.4c4 0 6.6-1 8-3 .8-1.6 1.1-3.4 1-5.2zm54.1-25.7-8.8 8.9a8.6 8.6 0 0 0-6.2-2.8 7 7 0 0 0-5.1 2.1 8.6 8.6 0 0 0-2.4 6.6v28.2h-11.7V49.3h11.4v4.5c2.8-3.3 6.8-5 11.8-5 4-.1 8 1.5 11 4.4zm39.5 43h-11.4v-4.4a14.6 14.6 0 0 1-11.6 4.9c-4.9 0-8.7-1.4-11.5-4.2a15.8 15.8 0 0 1-4.1-9c-.5-3.6-.7-7.2-.6-10.8-.1-3.6.1-7.2.6-10.7.7-3.9 2-6.9 4.1-9 2.8-2.8 6.6-4.2 11.4-4.2 4.8 0 8.6 1.6 11.4 4.7V32.2h11.8v64zm-11.7-23.5c0-4.4-.4-7.6-1.3-9.5-1.2-2.6-3.4-3.9-6.6-3.9-3.4 0-5.7 1.5-6.8 4.5-.7 1.8-1 4.8-1 8.9s.3 7.1 1 8.9c1 2.9 3.8 4.8 6.8 4.6 3.2 0 5.4-1.3 6.6-3.9.8-1.9 1.3-5.1 1.3-9.6z" fill="#2d2d2d" stroke="#fff" stroke-miterlimit="10"/><g><defs><path id="SVGID_1_" d="M78.5 138.1c-3.8 3.9-10.4 3.4-14.3-.4L5.1 78.5A9.8 9.8 0 0 1 5 64.6l.1-.1L63.6 6c3.9-3.8 11.3-4.7 15.1-.8l59 59c3.9 3.9 3.6 11.1-.2 15l-59 58.9z"/></defs><clipPath id="SVGID_00000145029192010834712300000017443068230347339956_"><use xlink:href="#SVGID_1_" overflow="visible"/></clipPath><g clip-path="url(#SVGID_00000145029192010834712300000017443068230347339956_)"><path fill="none" d="M56.1 65.2h45.2v3H56.1z"/><linearGradient id="SVGID_00000069364478787755211970000003740009090250123963_" gradientUnits="userSpaceOnUse" x1="71.6" y1="142.1" x2="71.6" y2="4.8" gradientTransform="matrix(1 0 0 -1 0 146)"><stop offset="0" stop-color="#006bff"/><stop offset="1" stop-color="#004dff"/></linearGradient><path d="M74.9 1.4a4.8 4.8 0 0 0-6.8 0L32.5 37.1h78.1L74.9 1.4z" fill="url(#SVGID_00000069364478787755211970000003740009090250123963_)"/><g><g class="st4"><path d="M74.9 1.4a4.8 4.8 0 0 0-6.8 0L32.5 37.1h78.1L74.9 1.4z"/></g></g><linearGradient id="SVGID_00000084519624245935921250000012172575822901895094_" gradientUnits="userSpaceOnUse" x1="71.5" y1="142.1" x2="71.5" y2="4.8" gradientTransform="matrix(1 0 0 -1 0 146)"><stop offset="0" stop-color="#006bff"/><stop offset="1" stop-color="#004dff"/></linearGradient><path d="m141.7 68.2-16.4-16.4v4.3h-14v-8h-12v8H42v-8H31v8H16.9v-3.5L1.4 68.2a4.8 4.8 0 0 0 0 6.8l18.5 18.5V60.1H31v11h11v-11h57.2v11h12v-11h11v34.2l19.4-19.4c1.9-1.8 2-4.8.1-6.7z" fill="url(#SVGID_00000084519624245935921250000012172575822901895094_)"/><g><g class="st4"><path d="m141.7 68.2-16.4-16.4v4.3h-14v-8h-12v8H42v-8H31v8H16.9v-3.5L1.4 68.2a4.8 4.8 0 0 0 0 6.8l18.5 18.5V60.1H31v11h11v-11h57.2v11h12v-11h11v34.2l19.4-19.4c1.9-1.8 2-4.8.1-6.7z"/></g></g><linearGradient id="SVGID_00000102525750365294681190000017673805805378204844_" gradientUnits="userSpaceOnUse" x1="71.6" y1="142.2" x2="71.6" y2="4.8" gradientTransform="matrix(1 0 0 -1 0 146)"><stop offset="0" stop-color="#006bff"/><stop offset="1" stop-color="#004dff"/></linearGradient><path d="M68.2 141.7a4.6 4.6 0 0 0 6.7 0l36.4-36.4H31.8l36.4 36.4z" fill="url(#SVGID_00000102525750365294681190000017673805805378204844_)"/><g><g class="st4"><path d="M68.2 141.7a4.6 4.6 0 0 0 6.7 0l36.4-36.4H31.8l36.4 36.4z"/></g></g><path class="st7" d="M111.3 60.1v11.1H99.2V60.1H42v11.1H31V60.1H19.9v33.4l11.9 11.8h79.5l11-11V60.1zm-87.6-4H31v-8h11v8h57.2v-8h12.1v8h14v-4.3L110.6 37H32.5L16.9 52.7v3.4z"/><path class="st7" d="M49 61.1h5v14.1h-5z"/></g></g></g></g></svg>